<?xml version="1.0" encoding="UTF-8"?>
<!DOCTYPE svg PUBLIC "-//W3C//DTD SVG 1.1//EN" "http://www.w3.org/Graphics/SVG/1.1/DTD/svg11.dtd">
<!-- Creator: CorelDRAW X8 -->
<svg xmlns="http://www.w3.org/2000/svg" xml:space="preserve" width="2.3622in" height="1.72737in" version="1.1" style="shape-rendering:geometricPrecision; text-rendering:geometricPrecision; image-rendering:optimizeQuality; fill-rule:evenodd; clip-rule:evenodd"
viewBox="0 0 2517 1840"
 xmlns:xlink="http://www.w3.org/1999/xlink">
 <defs>
  <style type="text/css">
   <![CDATA[
    .fil2 {fill:#00A859}
    .fil0 {fill:#2957A4}
    .fil1 {fill:#2957A4;fill-rule:nonzero}
   ]]>
  </style>
 </defs>
 <g id="Layer_x0020_1">
  <metadata id="CorelCorpID_0Corel-Layer"/>
  <g id="_2015222917200">
   <g>
    <path class="fil0" d="M1380 550c-8,-6 -17,-14 -20,-16 -30,-20 -68,-44 -110,-44 -4,-17 -10,-30 -17,-46 -27,-59 -72,-113 -136,-134 -20,-7 -42,-10 -65,-10 -28,0 -54,5 -78,15 -24,11 -45,26 -62,46 -18,21 -31,54 -42,83 -10,29 -15,62 -15,98 0,35 6,69 16,102 11,33 26,62 46,87 20,25 45,45 73,60 -92,117 -186,90 -330,66 -100,-16 -228,-23 -353,5 -15,4 -96,14 -123,14 147,-114 269,-194 378,-348 13,-18 22,-35 27,-51 6,-15 9,-30 9,-44 0,-24 -5,-53 -16,-69 -10,-16 -24,-30 -40,-40 -16,-10 -33,-17 -53,-22 -45,-11 -104,-10 -143,18 -11,8 -18,16 -23,26 -5,10 -7,21 -7,32 0,16 4,40 11,56 8,16 21,27 36,39 2,1 2,4 -2,6 -18,8 -37,11 -57,11 -12,0 -24,-1 -35,-5 -11,-3 -21,-7 -30,-13 -9,-6 -15,-14 -21,-23 -5,-9 -7,-19 -7,-31 0,-16 5,-40 14,-55 10,-14 22,-28 39,-40 62,-47 163,-77 242,-77 30,0 58,3 84,10 27,6 49,15 69,28 19,12 34,27 45,45 11,18 17,47 17,70 0,17 -3,34 -8,51 -5,18 -14,36 -27,55 -51,77 -184,214 -249,269 248,-49 316,58 403,28 -24,-21 -62,-62 -78,-97 -17,-36 -25,-77 -25,-123 0,-33 5,-63 13,-92 8,-29 20,-56 35,-80 16,-24 34,-55 56,-74 21,-19 45,-35 71,-49 26,-13 54,-23 84,-30 30,-7 61,-11 94,-11 45,0 86,7 124,19 66,21 136,89 164,151 16,35 22,72 22,117 0,6 0,12 0,17z"/>
    <path class="fil1" d="M276 1029c0,-15 -4,-27 -12,-37 -8,-9 -19,-13 -32,-13 -14,0 -25,4 -32,12 -8,9 -12,21 -12,36 0,16 4,28 12,37 8,9 18,13 33,13 13,0 24,-4 32,-13 7,-8 11,-20 11,-35zm22 -68l0 133 -22 0 0 -24c-5,9 -12,17 -20,22 -9,5 -18,8 -28,8 -19,0 -35,-7 -46,-20 -12,-13 -18,-31 -18,-52 0,-22 6,-40 17,-53 11,-12 27,-19 46,-19 11,0 20,3 29,8 8,5 14,12 20,22l0 -25 22 0zm46 133l0 -133 22 0 0 20c6,-8 13,-15 21,-19 8,-4 17,-6 28,-6 15,0 27,4 36,13 9,8 14,20 14,34l0 91 -24 0 0 -78c0,-14 -3,-24 -8,-30 -6,-7 -15,-10 -26,-10 -7,0 -13,1 -19,3 -6,3 -10,6 -14,11 -3,3 -5,7 -6,12 -1,4 -2,12 -2,23l0 69 -22 0zm103 -195c-2,10 -5,18 -10,23 -5,5 -11,8 -19,8 -1,0 -2,0 -4,0 -2,-1 -3,-1 -5,-2l-14 -3c-1,-1 -3,-1 -4,-1 -1,-1 -2,-1 -3,-1 -3,0 -6,1 -8,3 -2,1 -4,4 -5,7l-13 0c2,-9 5,-17 10,-22 5,-5 11,-8 18,-8 1,0 3,0 5,1 1,0 2,0 3,0l15 5c2,0 4,1 5,1 1,0 2,0 3,0 3,0 5,-1 8,-3 2,-1 4,-4 5,-8l13 0zm76 129c0,14 5,26 14,36 9,9 21,14 34,14 14,0 25,-5 34,-14 9,-10 14,-22 14,-36 0,-14 -5,-26 -14,-36 -9,-10 -20,-14 -34,-14 -13,0 -25,4 -34,14 -9,10 -14,22 -14,36zm-24 0c0,-10 2,-19 5,-28 4,-9 9,-16 16,-23 7,-7 15,-12 23,-16 9,-3 18,-5 28,-5 10,0 19,2 28,5 9,4 16,9 23,16 7,7 13,14 16,23 4,9 6,18 6,28 0,9 -2,19 -6,27 -3,9 -9,16 -16,23 -7,7 -15,12 -23,16 -9,4 -18,6 -28,6 -10,0 -19,-2 -28,-6 -8,-3 -16,-9 -23,-16 -7,-6 -12,-14 -16,-23 -3,-8 -5,-17 -5,-27zm166 44l19 -14c4,8 9,13 14,16 6,4 13,6 20,6 8,0 14,-2 18,-6 5,-4 7,-8 7,-14 0,-5 -1,-9 -4,-12 -4,-3 -9,-6 -17,-9l-3 -1c-33,-11 -49,-25 -49,-42 0,-12 4,-21 13,-29 9,-7 20,-11 34,-11 12,0 21,2 30,7 8,5 14,11 17,20l-18 11c-3,-6 -7,-11 -12,-14 -5,-4 -11,-5 -18,-5 -7,0 -13,2 -17,5 -4,4 -6,9 -6,15 0,8 9,15 26,20 4,1 6,2 8,3 15,4 25,10 30,16 6,6 9,13 9,23 0,13 -5,23 -14,31 -9,8 -20,12 -35,12 -12,0 -23,-3 -31,-7 -9,-5 -16,-12 -21,-21z"/>
    <path class="fil2" d="M1858 547c-2,-2 -3,-3 -6,-5 -42,-33 -82,-61 -114,-84 -28,-21 -76,-59 -100,-69 -34,-14 -61,-8 -91,24 -21,24 -43,60 -63,91 -33,49 -63,110 -100,143 -11,10 -21,17 -29,21 -4,2 -5,3 -14,7 -9,5 -2,12 7,8 38,-14 85,-49 111,-79 39,-45 76,-88 103,-116 24,-25 34,-27 53,-22 22,5 56,31 93,50 60,32 108,46 150,31z"/>
    <path class="fil2" d="M1275 613c26,-15 52,-18 78,-9 3,1 10,5 16,8 3,2 6,4 9,6 12,7 18,0 10,-8 -2,-2 -4,-4 -6,-6 -6,-5 -20,-17 -24,-19 -31,-22 -75,-54 -117,-29 -101,60 -148,165 -219,253 -13,16 -21,32 -51,54 -5,4 -11,7 -17,11 14,4 42,-8 50,-14 70,-49 51,-39 159,-144 36,-35 68,-78 112,-103z"/>
    <g>
     <path class="fil0" d="M1805 855c171,-19 305,-98 422,-202 63,-57 83,-135 137,-196 3,-4 6,-6 9,-9 22,-16 46,-32 69,-42 19,-9 55,-19 75,-27 -4,-9 -6,-13 -33,-11 -18,1 -41,7 -58,-2 -95,-45 -190,-26 -238,19 -34,32 -91,45 -141,77 -104,-141 -298,-316 -455,-411 -51,-30 -101,-59 -156,-49 -47,9 -105,58 -120,106 27,-24 65,-50 99,-61 69,-22 124,21 170,52 160,108 395,377 420,437 41,-20 38,-23 82,-30 58,-8 63,-19 69,-40 8,-23 16,-32 37,-36 42,-9 50,36 95,27 30,-6 35,-18 51,-39 12,-15 28,-12 50,-12 13,0 28,-1 21,3 -13,6 -34,9 -52,22 -42,32 -75,109 -114,154 -100,115 -287,233 -438,258 -14,3 -40,13 -1,12zm475 -482c15,-2 29,9 31,24 1,15 -9,29 -24,31 -15,1 -29,-9 -31,-24 -1,-15 9,-29 24,-31z"/>
     <path class="fil0" d="M1453 1067c-77,-21 -160,-50 -251,-34 -45,9 -106,31 -151,54 -21,11 -51,10 -34,-8 41,-45 113,-82 169,-94 81,-16 174,9 258,36 59,23 122,48 194,61 -56,30 -131,-1 -185,-15z"/>
     <path class="fil0" d="M1805 661c-43,64 -78,90 -123,127 -15,12 -29,22 -45,32 18,1 30,-5 41,-12 69,-42 127,-89 189,-153 12,-12 26,-22 37,-34 11,-12 17,-26 3,-38 -6,-4 -12,-9 -19,-14 -3,-2 -28,20 -44,38 -15,16 -27,35 -39,54z"/>
     <path class="fil0" d="M1440 973c-132,-48 -249,-49 -362,5 -63,30 -117,73 -197,28 -5,-3 -9,-4 -3,-9l13 -10 49 -35c130,-92 291,-97 435,-40 168,62 332,101 451,91 92,-8 169,-29 224,-77 41,-36 78,-74 49,-128 -8,-15 0,-22 12,-10 37,40 28,104 -5,150 -58,77 -162,123 -279,125 -140,2 -293,-55 -387,-90z"/>
    </g>
   </g>
   <path class="fil1" d="M217 1283c-12,-10 -24,-17 -37,-22 -13,-5 -27,-8 -42,-8 -28,0 -51,9 -68,27 -18,18 -27,41 -27,70 0,28 9,50 26,68 17,18 39,27 65,27 15,0 30,-2 43,-8 14,-5 27,-13 40,-24l0 47c-11,8 -24,14 -37,18 -13,4 -27,6 -43,6 -19,0 -37,-3 -54,-10 -17,-6 -31,-15 -44,-28 -13,-12 -22,-27 -29,-43 -7,-17 -10,-35 -10,-53 0,-19 3,-37 10,-53 7,-17 17,-31 29,-44 13,-12 28,-22 44,-28 17,-7 34,-10 54,-10 15,0 29,2 43,7 13,4 27,11 39,20l-2 41zm180 112c0,-16 -5,-29 -15,-39 -10,-11 -22,-16 -37,-16 -14,0 -26,5 -36,16 -10,10 -15,23 -15,39 0,15 5,28 15,39 10,11 22,16 36,16 14,0 27,-5 37,-16 10,-11 15,-24 15,-39zm-143 -1c0,-12 2,-23 7,-34 4,-11 11,-20 19,-29 9,-8 19,-14 30,-19 11,-4 23,-6 35,-6 12,0 24,2 35,6 11,5 21,11 30,20 9,8 15,18 20,29 5,10 7,22 7,33 0,13 -2,24 -7,35 -4,11 -11,20 -20,28 -9,9 -19,16 -30,20 -11,5 -23,7 -35,7 -12,0 -24,-2 -35,-7 -11,-4 -21,-11 -30,-19 -8,-9 -15,-19 -20,-29 -4,-11 -6,-22 -6,-35zm223 83l0 -166 36 0 0 28c7,-12 16,-20 27,-25 10,-6 22,-8 37,-8 13,0 23,2 32,5 9,4 15,10 20,18 3,4 5,10 7,16 1,6 2,17 2,32l0 100 -39 0 0 -85c0,-22 -3,-36 -8,-43 -5,-8 -15,-11 -28,-11 -9,0 -17,1 -24,5 -7,3 -12,8 -16,14 -3,4 -5,9 -6,15 -1,6 -2,16 -2,30l0 75 -38 0zm192 -30l32 -17c2,8 6,15 13,19 6,4 14,6 24,6 9,0 15,-2 20,-6 5,-3 7,-9 7,-16 0,-9 -8,-16 -26,-23 -5,-2 -10,-3 -13,-5 -18,-7 -30,-15 -37,-22 -7,-8 -11,-17 -11,-28 0,-15 6,-27 18,-36 11,-9 27,-14 46,-14 13,0 24,3 33,7 9,5 16,12 20,21l-27 18c-2,-5 -6,-9 -11,-12 -5,-4 -10,-5 -17,-5 -7,0 -13,2 -17,5 -5,4 -7,8 -7,14 0,8 10,16 30,23 6,3 11,4 14,6 15,6 26,13 33,20 6,8 10,18 10,29 0,17 -6,30 -18,39 -12,9 -29,14 -50,14 -16,0 -30,-3 -41,-9 -10,-6 -19,-15 -25,-28zm332 -47l-133 0c1,15 6,27 14,36 9,9 20,13 33,13 13,0 23,-2 31,-7 8,-6 15,-14 22,-25l32 18c-10,16 -21,29 -35,37 -14,8 -30,12 -49,12 -26,0 -48,-8 -63,-24 -16,-17 -24,-38 -24,-65 0,-26 8,-48 24,-64 17,-17 38,-25 63,-25 27,0 48,7 63,23 15,15 22,36 22,64l0 7zm-39 -26c-2,-11 -6,-21 -14,-27 -7,-6 -18,-9 -31,-9 -13,0 -23,3 -30,9 -8,6 -13,15 -16,27l91 0zm117 -36c4,-11 10,-19 16,-24 7,-6 15,-8 25,-8 6,0 11,0 16,2 5,1 11,3 16,5l-14 32c-3,-2 -7,-4 -11,-5 -4,-1 -8,-1 -13,-1 -12,0 -21,5 -27,15 -5,10 -8,27 -8,50l0 73 -38 0 0 -166 38 0 0 27zm167 149l-87 -176 41 0 37 84c1,2 2,6 4,11 2,5 3,12 5,19 1,-5 3,-10 4,-15 2,-5 4,-10 6,-15l36 -84 41 0 -87 176zm268 -10l-38 0 0 -21c-7,9 -15,16 -24,21 -9,5 -20,7 -31,7 -24,0 -42,-8 -56,-24 -13,-16 -20,-38 -20,-66 0,-26 7,-48 21,-64 14,-16 32,-24 54,-24 13,0 25,2 35,8 9,6 16,14 21,24l0 -27 38 0 0 166zm-37 -83c0,-17 -4,-31 -12,-40 -8,-10 -19,-15 -34,-15 -14,0 -26,5 -34,15 -8,10 -12,24 -12,41 0,18 4,31 12,41 8,10 19,14 33,14 14,0 25,-5 34,-15 8,-11 13,-24 13,-41zm206 -35c-6,-7 -12,-12 -20,-15 -8,-3 -16,-5 -25,-5 -16,0 -28,5 -38,15 -9,10 -14,23 -14,40 0,17 5,31 14,41 10,9 23,14 40,14 9,0 17,-1 24,-5 8,-3 14,-9 19,-16l0 44c-7,4 -14,7 -22,9 -8,2 -17,3 -26,3 -26,0 -47,-8 -63,-25 -17,-16 -25,-38 -25,-64 0,-27 8,-48 25,-65 17,-16 40,-24 67,-24 9,0 17,0 24,2 7,2 14,4 20,8l0 43zm36 -119c0,-7 2,-12 7,-17 5,-5 10,-7 17,-7 7,0 13,2 17,7 4,4 7,10 7,17 0,7 -3,12 -7,17 -5,4 -10,7 -17,7 -7,0 -12,-3 -17,-7 -5,-5 -7,-11 -7,-17zm5 237l0 -166 38 0 0 166 -38 0zm223 -82c0,-16 -5,-29 -15,-39 -10,-11 -22,-16 -36,-16 -14,0 -27,5 -37,16 -10,10 -15,23 -15,39 0,15 5,28 15,39 10,11 23,16 37,16 14,0 26,-5 36,-16 10,-11 15,-24 15,-39zm-143 -1c0,-12 3,-23 7,-34 5,-11 11,-20 20,-29 9,-8 18,-14 30,-19 11,-4 22,-6 34,-6 13,0 25,2 36,6 11,5 21,11 30,20 8,8 15,18 20,29 4,10 6,22 6,33 0,13 -2,24 -6,35 -5,11 -11,20 -20,28 -9,9 -19,16 -30,20 -12,5 -23,7 -36,7 -12,0 -23,-2 -34,-7 -11,-4 -21,-11 -30,-19 -9,-9 -15,-19 -20,-29 -5,-11 -7,-22 -7,-35zm67 -108l33 -47 40 0 -51 47 -22 0zm157 191l0 -166 35 0 0 28c8,-12 17,-20 27,-25 11,-6 23,-8 38,-8 12,0 23,2 31,5 9,4 16,10 21,18 3,4 5,10 6,16 2,6 2,17 2,32l0 100 -38 0 0 -85c0,-22 -3,-36 -8,-43 -6,-8 -15,-11 -29,-11 -8,0 -16,1 -23,5 -7,3 -13,8 -17,14 -3,4 -5,9 -6,15 -1,6 -1,16 -1,30l0 75 -38 0zm-1403 273c0,-17 -4,-30 -12,-40 -8,-10 -19,-14 -34,-14 -14,0 -25,5 -34,14 -8,10 -12,24 -12,42 0,17 4,31 12,40 8,10 19,15 34,15 13,0 25,-6 33,-16 9,-10 13,-24 13,-41zm-1 -188l38 0 0 272 -38 0 0 -22c-7,10 -15,17 -24,21 -9,5 -19,7 -31,7 -24,0 -42,-8 -56,-24 -13,-16 -20,-38 -20,-66 0,-26 7,-47 21,-64 14,-16 32,-24 54,-24 13,0 25,3 35,8 9,6 16,14 21,25l0 -133zm251 194l-133 0c1,16 5,28 14,37 8,8 19,13 33,13 12,0 22,-3 30,-8 9,-5 16,-14 22,-25l32 18c-10,17 -21,29 -35,37 -14,8 -30,12 -49,12 -26,0 -47,-8 -63,-24 -16,-16 -24,-38 -24,-65 0,-26 8,-47 25,-64 16,-17 37,-25 62,-25 27,0 48,8 63,23 15,15 23,37 23,64l0 7zm-40 -25c-1,-12 -6,-21 -14,-27 -7,-7 -18,-10 -31,-10 -12,0 -22,3 -30,9 -8,6 -13,16 -16,28l91 0zm192 103l0 -257 41 0 0 257 -41 0zm79 -31l32 -17c2,9 6,15 13,19 6,5 14,7 24,7 8,0 15,-2 20,-6 5,-4 7,-9 7,-16 0,-9 -8,-17 -26,-23 -5,-2 -10,-4 -13,-6 -18,-7 -30,-14 -37,-22 -8,-7 -11,-17 -11,-28 0,-14 6,-26 17,-36 12,-9 27,-13 47,-13 12,0 23,2 33,7 9,4 16,11 20,20l-27 18c-2,-5 -6,-9 -11,-12 -5,-3 -10,-5 -17,-5 -7,0 -13,2 -17,5 -5,4 -7,8 -7,14 0,9 10,17 29,24 7,2 11,4 15,5 15,6 26,13 33,21 6,7 10,17 10,28 0,17 -6,30 -18,39 -13,10 -29,14 -50,14 -17,0 -30,-3 -41,-9 -11,-6 -19,-15 -25,-28zm174 31l0 -272 38 0 0 272 -38 0zm249 0l-38 0 0 -22c-7,10 -15,17 -24,21 -9,5 -20,7 -31,7 -24,0 -42,-8 -56,-24 -13,-16 -20,-38 -20,-66 0,-26 7,-47 21,-64 14,-16 32,-24 54,-24 13,0 25,3 35,8 9,6 16,14 21,25l0 -27 38 0 0 166zm-37 -84c0,-17 -4,-30 -12,-40 -8,-10 -19,-14 -34,-14 -14,0 -26,5 -34,14 -8,10 -12,24 -12,42 0,17 4,31 12,40 8,10 19,15 33,15 14,0 25,-6 34,-16 8,-10 13,-24 13,-41zm70 53l32 -17c2,9 6,15 13,19 6,5 14,7 24,7 9,0 15,-2 20,-6 5,-4 7,-9 7,-16 0,-9 -8,-17 -25,-23 -6,-2 -11,-4 -14,-6 -18,-7 -30,-14 -37,-22 -7,-7 -11,-17 -11,-28 0,-14 6,-26 18,-36 11,-9 27,-13 46,-13 13,0 24,2 33,7 9,4 16,11 20,20l-27 18c-2,-5 -6,-9 -10,-12 -5,-3 -11,-5 -18,-5 -7,0 -13,2 -17,5 -5,4 -7,8 -7,14 0,9 10,17 30,24 6,2 11,4 14,5 15,6 26,13 33,21 7,7 10,17 10,28 0,17 -6,30 -18,39 -12,10 -29,14 -50,14 -16,0 -30,-3 -41,-9 -10,-6 -19,-15 -25,-28z"/>
  </g>
 </g>
</svg>
