<?xml version="1.0" encoding="UTF-8"?>
<!DOCTYPE svg PUBLIC "-//W3C//DTD SVG 1.1//EN" "http://www.w3.org/Graphics/SVG/1.1/DTD/svg11.dtd">
<!-- Creator: CorelDRAW X8 -->
<svg xmlns="http://www.w3.org/2000/svg" xml:space="preserve" width="8.26494in" height="1.95968in" version="1.1" style="shape-rendering:geometricPrecision; text-rendering:geometricPrecision; image-rendering:optimizeQuality; fill-rule:evenodd; clip-rule:evenodd"
viewBox="0 0 8681 2058"
 xmlns:xlink="http://www.w3.org/1999/xlink">
 <defs>
  <style type="text/css">
   <![CDATA[
    .fil2 {fill:#00A859}
    .fil0 {fill:#2957A4}
    .fil1 {fill:#2957A4;fill-rule:nonzero}
   ]]>
  </style>
 </defs>
 <g id="Layer_x0020_1">
  <metadata id="CorelCorpID_0Corel-Layer"/>
  <g id="_2015467189696">
   <g>
    <path class="fil0" d="M2270 1027c-14,-11 -32,-26 -38,-30 -55,-38 -127,-82 -205,-82 -8,-33 -18,-56 -31,-86 -51,-111 -135,-211 -254,-251 -38,-12 -79,-18 -122,-18 -52,0 -100,10 -145,29 -45,20 -84,48 -116,86 -34,38 -59,100 -78,153 -18,54 -28,116 -28,184 0,66 10,130 30,191 20,60 48,114 86,161 37,47 84,85 136,113 -173,217 -349,168 -616,124 -186,-31 -426,-43 -660,9 -27,6 -179,26 -229,25 274,-212 502,-362 706,-649 24,-34 41,-65 51,-95 10,-29 15,-57 15,-83 0,-44 -10,-98 -29,-129 -20,-30 -44,-55 -74,-74 -30,-19 -63,-33 -100,-41 -84,-20 -193,-18 -267,34 -20,14 -34,30 -43,49 -9,18 -14,38 -14,58 0,30 8,76 22,105 15,29 40,51 67,73 3,3 3,7 -3,10 -34,17 -70,22 -108,22 -22,0 -44,-3 -65,-9 -21,-6 -39,-14 -56,-25 -16,-11 -28,-26 -38,-43 -10,-16 -14,-36 -14,-57 0,-30 9,-76 26,-103 18,-27 42,-52 72,-74 116,-88 306,-144 453,-144 56,0 108,5 158,18 49,12 91,28 127,51 36,24 64,52 85,86 21,33 31,88 31,130 0,31 -5,63 -15,96 -10,32 -26,67 -50,102 -94,144 -344,400 -464,501 462,-90 589,110 751,54 -44,-40 -116,-116 -146,-182 -30,-67 -45,-143 -45,-229 0,-61 8,-119 24,-173 15,-54 37,-103 66,-148 29,-45 63,-103 103,-138 40,-36 84,-67 133,-91 49,-25 101,-44 157,-57 56,-14 114,-20 175,-20 83,0 160,11 232,34 122,40 254,167 305,283 30,66 43,134 43,219 0,10 -1,21 -1,31z"/>
    <path class="fil1" d="M209 1921c0,-29 -8,-51 -23,-68 -15,-17 -35,-26 -60,-26 -25,0 -45,8 -59,24 -15,16 -22,37 -22,66 0,30 7,53 22,69 14,16 34,25 61,25 25,0 45,-8 59,-24 15,-16 22,-38 22,-66zm41 -127l0 248 -41 0 0 -45c-10,18 -23,32 -38,42 -16,9 -33,14 -52,14 -36,0 -65,-12 -86,-37 -22,-24 -33,-57 -33,-97 0,-41 11,-74 32,-98 21,-24 49,-36 85,-36 20,0 39,5 54,14 15,9 28,23 37,42l0 -47 42 0zm85 248l0 -248 42 0 0 38c10,-16 23,-28 38,-35 15,-8 33,-12 52,-12 30,0 53,8 69,23 17,16 25,38 25,65l0 169 -44 0 0 -146c0,-25 -5,-44 -15,-56 -11,-12 -27,-18 -49,-18 -13,0 -25,2 -35,7 -10,4 -19,11 -26,19 -5,7 -9,14 -11,22 -3,9 -4,23 -4,44l0 128 -42 0zm193 -363c-4,19 -10,33 -19,43 -9,9 -21,14 -34,14 -3,0 -6,0 -9,-1 -3,0 -6,-1 -9,-2l-26 -7c-3,-1 -5,-1 -7,-2 -3,0 -5,0 -7,0 -5,0 -10,1 -14,4 -4,4 -8,8 -10,14l-24 0c3,-18 9,-32 18,-41 10,-10 21,-15 34,-15 3,0 6,1 9,1 3,0 5,1 7,2l27 7c4,2 7,2 9,3 2,0 4,0 6,0 6,0 11,-1 15,-5 4,-3 8,-8 10,-15l24 0zm142 240c0,26 9,48 26,66 18,19 39,28 64,28 25,0 46,-9 63,-28 18,-18 26,-40 26,-66 0,-26 -8,-49 -26,-67 -17,-18 -38,-27 -63,-27 -25,0 -46,9 -64,27 -17,18 -26,41 -26,67zm-45 0c0,-19 3,-36 10,-52 7,-16 16,-31 29,-43 13,-13 28,-23 44,-29 16,-7 34,-10 52,-10 18,0 35,3 52,10 16,7 30,16 44,29 12,13 22,27 29,43 7,16 10,34 10,52 0,18 -3,35 -10,51 -7,16 -17,30 -29,43 -14,13 -28,23 -45,30 -16,6 -33,10 -51,10 -18,0 -36,-4 -52,-10 -16,-7 -31,-17 -44,-30 -13,-13 -22,-27 -29,-43 -7,-16 -10,-33 -10,-51zm310 82l36 -25c7,13 16,23 26,30 11,6 23,10 37,10 14,0 26,-4 34,-11 9,-7 13,-16 13,-27 0,-8 -3,-16 -9,-21 -6,-6 -16,-12 -30,-16l-7 -3c-60,-21 -91,-47 -91,-78 0,-22 9,-40 25,-54 16,-14 37,-21 63,-21 22,0 40,4 56,13 15,8 26,21 33,36l-35 22c-5,-12 -12,-21 -22,-27 -10,-6 -21,-9 -34,-9 -13,0 -23,3 -31,10 -8,7 -12,16 -12,27 0,15 17,28 50,38 6,2 11,4 14,5 27,9 46,19 57,30 10,11 15,26 15,44 0,23 -8,42 -25,57 -16,15 -38,22 -65,22 -23,0 -43,-4 -59,-13 -16,-9 -29,-22 -39,-39z"/>
    <path class="fil2" d="M3162 1021c-4,-4 -5,-5 -10,-9 -80,-62 -154,-115 -213,-158 -52,-38 -142,-109 -188,-128 -62,-25 -113,-15 -168,45 -41,45 -81,112 -119,169 -61,93 -118,206 -187,268 -20,18 -39,31 -53,39 -9,4 -9,6 -26,14 -17,8 -5,21 12,14 71,-26 158,-91 207,-148 72,-83 143,-163 194,-217 43,-45 63,-49 98,-40 41,9 104,58 173,94 113,60 202,84 280,57z"/>
    <path class="fil2" d="M2074 1144c48,-28 97,-33 146,-16 6,2 19,9 29,15 6,3 11,7 17,10 22,14 33,1 18,-15 -3,-3 -6,-6 -10,-10 -12,-10 -38,-32 -45,-36 -57,-40 -141,-100 -218,-54 -188,113 -277,308 -410,472 -24,30 -39,60 -95,102 -9,7 -20,13 -31,20 26,7 77,-16 93,-27 131,-91 96,-72 296,-268 67,-66 128,-145 210,-193z"/>
    <g>
     <path class="fil0" d="M3063 1597c320,-36 569,-183 788,-378 118,-106 156,-252 256,-366 6,-7 11,-12 17,-16 41,-31 85,-60 129,-79 36,-16 103,-35 139,-50 -8,-16 -10,-24 -60,-22 -35,2 -78,13 -110,-2 -177,-85 -355,-50 -443,34 -64,61 -171,85 -264,145 -195,-264 -557,-591 -850,-767 -94,-57 -187,-111 -290,-92 -88,16 -197,108 -225,197 50,-44 122,-92 185,-113 129,-42 232,39 318,97 299,202 737,704 784,816 76,-37 71,-43 154,-56 107,-16 116,-36 128,-75 14,-43 30,-59 68,-67 80,-17 94,66 177,50 56,-11 67,-33 97,-72 22,-28 51,-24 93,-24 25,0 51,0 39,6 -25,13 -64,17 -97,42 -78,59 -141,204 -214,288 -186,214 -536,434 -816,481 -27,5 -76,24 -3,23zm888 -900c28,-3 53,17 56,45 4,28 -17,53 -45,56 -28,3 -53,-17 -56,-45 -3,-28 17,-53 45,-56z"/>
     <path class="fil0" d="M2406 1992c-143,-39 -298,-94 -469,-63 -83,16 -197,58 -281,101 -40,20 -96,18 -64,-16 78,-84 211,-153 315,-175 152,-31 326,16 482,66 111,44 229,90 362,114 -104,57 -245,0 -345,-27z"/>
     <path class="fil0" d="M3063 1233c-80,120 -145,169 -230,239 -27,22 -54,40 -83,59 33,2 55,-10 76,-23 129,-78 238,-166 353,-284 23,-23 48,-43 70,-65 21,-21 32,-49 4,-70 -10,-9 -22,-17 -34,-26 -6,-4 -53,37 -83,70 -28,30 -50,66 -73,100z"/>
     <path class="fil0" d="M2383 1817c-248,-91 -466,-92 -676,8 -118,56 -219,136 -369,53 -9,-5 -17,-8 -5,-17l23 -18 93 -66c242,-172 543,-180 811,-75 315,116 620,190 842,171 172,-14 316,-55 419,-145 75,-66 145,-137 92,-237 -16,-30 -1,-43 21,-19 69,73 54,193 -9,279 -107,145 -301,230 -520,233 -262,5 -548,-103 -722,-167z"/>
    </g>
   </g>
   <path class="fil1" d="M5006 1020c-22,-19 -45,-33 -70,-42 -24,-10 -50,-14 -77,-14 -52,0 -95,17 -128,50 -33,34 -49,77 -49,130 0,52 16,94 48,128 32,33 72,50 121,50 28,0 55,-5 81,-15 25,-10 50,-25 73,-46l0 88c-21,15 -43,26 -68,34 -25,7 -51,11 -80,11 -37,0 -71,-6 -102,-18 -31,-12 -58,-30 -81,-53 -24,-23 -42,-50 -54,-81 -13,-31 -19,-64 -19,-99 0,-35 6,-67 19,-98 12,-31 30,-58 54,-81 24,-24 51,-41 82,-54 31,-12 64,-18 100,-18 28,0 55,4 80,13 26,8 50,20 74,37l-4 78zm334 208c0,-29 -9,-54 -27,-73 -19,-20 -42,-30 -68,-30 -27,0 -50,10 -68,30 -19,19 -28,44 -28,73 0,28 9,53 28,73 18,20 41,29 68,29 26,0 49,-9 67,-29 19,-20 28,-45 28,-73zm-266 -1c0,-23 4,-44 13,-64 8,-20 21,-38 37,-54 16,-15 34,-27 55,-35 21,-9 42,-13 65,-13 23,0 45,4 66,13 20,8 39,20 55,36 17,16 29,34 38,54 8,20 12,41 12,63 0,23 -4,44 -12,64 -9,20 -21,38 -37,53 -17,17 -36,29 -57,37 -20,9 -42,13 -65,13 -23,0 -44,-4 -65,-13 -21,-8 -39,-20 -55,-36 -17,-16 -29,-34 -38,-54 -8,-20 -12,-41 -12,-64zm416 154l0 -309 67 0 0 51c14,-22 31,-37 50,-47 19,-10 43,-15 70,-15 23,0 43,4 59,11 16,8 29,18 38,33 6,8 10,18 12,29 2,12 4,31 4,60l0 187 -72 0 0 -159c0,-40 -5,-67 -15,-81 -10,-13 -27,-20 -53,-20 -16,0 -31,3 -44,10 -13,6 -23,14 -31,25 -5,8 -9,17 -11,29 -2,11 -3,30 -3,55l0 141 -71 0zm358 -56l59 -32c5,16 13,27 25,35 11,8 27,12 45,12 16,0 28,-3 37,-10 9,-8 14,-18 14,-30 0,-17 -16,-31 -48,-43 -11,-4 -20,-8 -26,-10 -33,-14 -56,-28 -69,-42 -13,-14 -20,-31 -20,-51 0,-28 11,-50 33,-68 21,-17 50,-25 86,-25 24,0 44,4 61,13 18,9 30,21 38,38l-50 34c-4,-10 -11,-17 -20,-23 -9,-6 -20,-9 -32,-9 -14,0 -24,3 -33,10 -8,6 -12,15 -12,25 0,16 18,31 55,44 12,4 21,8 27,10 28,12 49,24 61,39 12,14 19,32 19,53 0,31 -12,55 -34,73 -23,17 -53,26 -93,26 -30,0 -55,-6 -75,-17 -21,-11 -36,-29 -48,-52zm620 -88l-248 0c2,29 10,51 26,68 15,16 36,24 62,24 23,0 42,-5 57,-14 15,-10 29,-25 40,-47l60 34c-18,31 -39,54 -65,69 -26,15 -56,23 -91,23 -50,0 -89,-15 -119,-45 -29,-31 -44,-71 -44,-121 0,-49 16,-89 46,-120 30,-31 69,-47 117,-47 50,0 89,15 117,43 28,28 42,68 42,120l0 13zm-74 -47c-3,-23 -11,-40 -25,-51 -14,-12 -34,-18 -58,-18 -24,0 -42,6 -57,17 -14,12 -24,29 -29,52l169 0zm219 -69c7,-20 17,-35 30,-45 13,-10 28,-15 47,-15 10,0 20,2 29,4 10,2 20,6 29,10l-26 60c-6,-4 -12,-7 -19,-9 -7,-2 -15,-3 -24,-3 -24,0 -41,9 -51,28 -10,19 -15,50 -15,95l0 135 -71 0 0 -310 71 0 0 50zm311 279l-163 -328 78 0 68 156c2,4 5,11 8,21 3,10 6,21 9,34 2,-9 5,-18 8,-28 3,-9 6,-18 10,-27l68 -156 77 0 -163 328zm499 -19l-71 0 0 -40c-12,18 -27,31 -44,40 -17,9 -36,13 -58,13 -44,0 -78,-15 -104,-45 -25,-30 -37,-71 -37,-123 0,-49 12,-89 38,-119 26,-31 60,-46 101,-46 25,0 47,6 65,16 18,11 31,26 39,45l0 -50 71 0 0 309zm-69 -155c0,-32 -7,-57 -22,-75 -15,-18 -36,-27 -63,-27 -27,0 -48,9 -63,28 -15,18 -23,44 -23,76 0,33 7,58 22,76 15,18 36,27 63,27 26,0 46,-10 62,-29 16,-19 24,-45 24,-76zm385 -66c-10,-12 -23,-21 -38,-27 -14,-6 -30,-10 -47,-10 -28,0 -52,10 -69,28 -18,19 -26,44 -26,75 0,32 8,57 26,76 18,18 42,27 73,27 17,0 32,-3 46,-9 13,-7 25,-17 35,-30l0 82c-13,7 -27,13 -42,16 -14,4 -30,6 -47,6 -49,0 -88,-16 -119,-46 -31,-31 -46,-71 -46,-120 0,-50 16,-90 48,-121 31,-30 73,-46 124,-46 16,0 31,2 45,5 13,3 26,8 37,15l0 79zm67 -222c0,-11 4,-22 13,-31 9,-8 20,-13 32,-13 12,0 23,5 31,13 9,8 13,19 13,31 0,13 -4,24 -13,32 -8,9 -19,13 -31,13 -12,0 -23,-4 -32,-13 -9,-9 -13,-19 -13,-32zm9 443l0 -309 71 0 0 309 -71 0zm416 -153c0,-29 -9,-54 -27,-73 -19,-20 -42,-30 -68,-30 -27,0 -50,10 -68,30 -19,19 -28,44 -28,73 0,28 9,53 28,73 18,20 41,29 68,29 26,0 49,-9 67,-29 19,-20 28,-45 28,-73zm-266 -1c0,-23 4,-44 13,-64 8,-20 21,-38 37,-54 16,-15 34,-27 55,-35 21,-9 42,-13 65,-13 23,0 45,4 66,13 20,8 39,20 55,36 17,16 29,34 38,54 8,20 12,41 12,63 0,23 -4,44 -12,64 -9,20 -21,38 -37,53 -17,17 -36,29 -57,37 -20,9 -42,13 -65,13 -23,0 -44,-4 -65,-13 -21,-8 -39,-20 -55,-36 -17,-16 -29,-34 -38,-54 -8,-20 -12,-41 -12,-64zm124 -202l63 -89 73 0 -95 89 -41 0zm292 356l0 -309 67 0 0 51c14,-22 31,-37 50,-47 19,-10 43,-15 70,-15 23,0 43,4 59,11 16,8 29,18 38,33 6,8 10,18 12,29 2,12 4,31 4,60l0 187 -72 0 0 -159c0,-40 -5,-67 -15,-81 -10,-13 -27,-20 -53,-20 -16,0 -31,3 -44,10 -13,6 -23,14 -31,25 -5,8 -9,17 -11,29 -2,11 -3,30 -3,55l0 141 -71 0zm-3542 509c0,-32 -8,-57 -23,-75 -15,-18 -36,-27 -62,-27 -27,0 -48,10 -64,28 -15,18 -23,44 -23,77 0,32 8,58 22,76 15,18 36,26 63,26 26,0 47,-9 63,-28 16,-20 24,-45 24,-77zm-2 -350l71 0 0 506 -71 0 0 -40c-13,17 -28,31 -45,39 -17,9 -36,13 -58,13 -44,0 -78,-15 -103,-45 -25,-29 -38,-70 -38,-122 0,-50 13,-90 39,-120 25,-30 59,-45 100,-45 26,0 47,5 65,15 18,11 31,26 40,46l0 -247zm467 361l-248 0c2,29 11,52 26,68 16,16 36,24 62,24 23,0 42,-4 57,-14 16,-9 29,-25 40,-46l60 33c-18,31 -39,54 -65,69 -26,16 -56,23 -90,23 -50,0 -90,-15 -119,-45 -30,-30 -44,-71 -44,-121 0,-49 15,-88 45,-120 31,-31 70,-46 118,-46 50,0 88,14 116,42 28,29 42,69 42,120l0 13zm-73 -47c-3,-22 -12,-39 -26,-51 -14,-11 -33,-17 -58,-17 -23,0 -42,5 -56,17 -14,11 -24,28 -30,51l170 0zm357 192l0 -478 77 0 0 478 -77 0zm148 -57l59 -32c4,16 12,28 24,36 12,8 27,12 45,12 16,0 29,-4 38,-11 9,-7 13,-17 13,-30 0,-17 -16,-31 -48,-43 -11,-4 -19,-7 -25,-10 -33,-14 -57,-27 -70,-42 -13,-14 -20,-31 -20,-51 0,-28 11,-50 33,-67 22,-17 50,-26 86,-26 24,0 45,4 62,13 17,9 29,22 37,38l-50 35c-4,-10 -10,-18 -20,-24 -9,-6 -20,-9 -32,-9 -13,0 -24,4 -32,10 -8,6 -13,15 -13,26 0,16 19,30 55,44 12,4 21,7 27,10 29,11 49,24 61,38 13,14 19,32 19,53 0,31 -11,56 -34,73 -22,17 -53,26 -93,26 -30,0 -55,-5 -75,-17 -20,-11 -36,-28 -47,-52zm324 57l0 -506 71 0 0 506 -71 0zm464 0l-71 0 0 -40c-13,17 -27,31 -44,39 -17,9 -37,13 -58,13 -44,0 -79,-15 -104,-45 -25,-29 -38,-70 -38,-122 0,-50 13,-90 39,-120 26,-30 59,-45 101,-45 25,0 47,5 65,15 18,11 31,26 39,46l0 -51 71 0 0 310zm-69 -156c0,-32 -7,-57 -22,-75 -15,-18 -36,-27 -63,-27 -27,0 -48,10 -63,28 -16,18 -23,44 -23,77 0,32 7,58 22,76 15,18 36,26 63,26 25,0 46,-9 62,-29 16,-19 24,-44 24,-76zm131 99l59 -32c5,16 13,28 24,36 12,8 27,12 46,12 16,0 28,-4 37,-11 9,-7 14,-17 14,-30 0,-17 -16,-31 -49,-43 -10,-4 -19,-7 -25,-10 -33,-14 -56,-27 -69,-42 -13,-14 -20,-31 -20,-51 0,-28 11,-50 33,-67 21,-17 50,-26 86,-26 24,0 44,4 61,13 17,9 30,22 38,38l-51 35c-3,-10 -10,-18 -19,-24 -9,-6 -20,-9 -32,-9 -14,0 -24,4 -33,10 -8,6 -12,15 -12,26 0,16 18,30 55,44 11,4 20,7 27,10 28,11 49,24 61,38 12,14 18,32 18,53 0,31 -11,56 -33,73 -23,17 -54,26 -93,26 -30,0 -56,-5 -76,-17 -20,-11 -35,-28 -47,-52z"/>
  </g>
 </g>
</svg>
